<svg width="363" height="363" viewBox="0 0 363 363" fill="none" xmlns="http://www.w3.org/2000/svg"><path d="M363 44.592L318.408 0h-13.151L363 57.743V44.592zM363 0h-13.152L363 13.151V0zm0 89.08L273.919 0h-13.151L363 102.232V89.08zm0 89.081L184.736 0h-13.151L363 191.312v-13.151zm0-44.489L229.328 0h-13.151L363 146.823v-13.151zm0 89.08L140.248 0h-13.152L363 235.904v-13.152zm0 44.592L95.656 0H82.505L363 280.495v-13.151zm0 44.489L51.167 0H38.016L363 324.984v-13.151zM363 363v-6.576L6.576 0H0v6.576L356.424 363H363zm-38.016 0L0 38.016v13.151L311.833 363h13.151zm-44.489 0L0 82.504v13.152L267.344 363h13.151zm-44.591 0L0 127.096v13.152L222.752 363h13.152zm-44.592 0L0 171.585v13.151L178.161 363h13.151zm-44.489 0L0 216.177v13.151L133.672 363h13.151zm-44.591 0L0 260.768v13.151L89.08 363h13.152zm-44.489 0L0 305.257v13.151L44.592 363h13.151zm-44.592 0L0 349.848V363h13.151z" fill="#000"/></svg>