<?xml version="1.0" encoding="UTF-8"?>
<svg xmlns="http://www.w3.org/2000/svg" xmlns:xlink="http://www.w3.org/1999/xlink" width="224.87999pt" height="225pt" viewBox="0 0 224.87999 225" version="1.2">
<defs>
<clipPath id="clip1">
  <path d="M 0 0.0585938 L 224.761719 0.0585938 L 224.761719 224.9375 L 0 224.9375 Z M 0 0.0585938 "/>
</clipPath>
<clipPath id="clip2">
  <path d="M 3 3.996094 L 222 3.996094 L 222 222 L 3 222 Z M 3 3.996094 "/>
</clipPath>
<clipPath id="clip3">
  <path d="M 0 217 L 224.761719 217 L 224.761719 224.9375 L 0 224.9375 Z M 0 217 "/>
</clipPath>
</defs>
<g id="surface1">
<g clip-path="url(#clip1)" clip-rule="nonzero">
<path style=" stroke:none;fill-rule:nonzero;fill:rgb(100%,100%,100%);fill-opacity:1;" d="M 0 0.0585938 L 224.878906 0.0585938 L 224.878906 232.4375 L 0 232.4375 Z M 0 0.0585938 "/>
<path style=" stroke:none;fill-rule:nonzero;fill:rgb(100%,100%,100%);fill-opacity:1;" d="M 0 0.0585938 L 224.878906 0.0585938 L 224.878906 224.941406 L 0 224.941406 Z M 0 0.0585938 "/>
<path style=" stroke:none;fill-rule:nonzero;fill:rgb(100%,100%,100%);fill-opacity:1;" d="M 0 0.0585938 L 224.878906 0.0585938 L 224.878906 224.941406 L 0 224.941406 Z M 0 0.0585938 "/>
</g>
<g clip-path="url(#clip2)" clip-rule="nonzero">
<path style=" stroke:none;fill-rule:nonzero;fill:rgb(15.689087%,23.139954%,39.219666%);fill-opacity:1;" d="M 112.441406 187.804688 C 71.074219 187.804688 37.542969 154.214844 37.542969 112.78125 C 37.542969 71.34375 71.074219 37.757812 112.441406 37.757812 C 153.804688 37.757812 187.335938 71.34375 187.335938 112.78125 C 187.335938 154.214844 153.804688 187.804688 112.441406 187.804688 Z M 221.039062 123 L 221.039062 102.558594 L 204.71875 97.339844 C 202.695312 89.789062 202.074219 87.449219 200.050781 79.894531 L 211.542969 67.253906 C 206.324219 58.195312 206.558594 58.601562 201.332031 49.546875 L 184.667969 53.207031 L 171.914062 40.429688 L 175.5625 23.734375 C 166.523438 18.503906 166.933594 18.738281 157.894531 13.503906 L 145.269531 25.019531 C 137.726562 22.996094 135.390625 22.371094 127.855469 20.347656 L 122.644531 3.996094 L 102.234375 3.996094 L 97.023438 20.347656 C 89.488281 22.371094 87.152344 22.996094 79.613281 25.019531 L 66.992188 13.507812 C 57.949219 18.738281 58.355469 18.503906 49.316406 23.734375 L 52.96875 40.429688 L 40.210938 53.207031 L 23.546875 49.546875 C 18.324219 58.601562 18.558594 58.195312 13.332031 67.25 L 24.828125 79.894531 C 22.808594 87.449219 22.183594 89.789062 20.164062 97.339844 L 3.839844 102.558594 L 3.839844 123 L 20.164062 128.21875 C 22.183594 135.769531 22.808594 138.109375 24.828125 145.664062 L 13.335938 158.304688 C 18.558594 167.363281 18.324219 166.957031 23.546875 176.011719 L 40.210938 172.351562 L 52.96875 185.128906 L 49.316406 201.824219 C 58.355469 207.054688 57.949219 206.820312 66.988281 212.054688 L 79.613281 200.539062 C 87.152344 202.5625 89.488281 203.1875 97.023438 205.214844 L 102.234375 221.5625 L 122.644531 221.5625 L 127.855469 205.214844 C 135.390625 203.1875 137.726562 202.5625 145.269531 200.539062 L 157.886719 212.054688 C 166.933594 206.820312 166.523438 207.054688 175.5625 201.824219 L 171.914062 185.128906 L 184.667969 172.351562 L 201.332031 176.011719 C 206.558594 166.957031 206.324219 167.363281 211.546875 158.308594 L 200.050781 145.664062 C 202.074219 138.109375 202.695312 135.769531 204.71875 128.21875 L 221.039062 123 "/>
</g>
<path style=" stroke:none;fill-rule:nonzero;fill:rgb(82.348633%,83.918762%,84.709167%);fill-opacity:1;" d="M 56.269531 112.78125 L 56.269531 221.5625 L 101.207031 221.5625 L 101.207031 112.78125 L 56.269531 112.78125 "/>
<path style=" stroke:none;fill-rule:nonzero;fill:rgb(65.098572%,69.40918%,72.158813%);fill-opacity:1;" d="M 101.207031 97.773438 L 101.207031 221.5625 L 168.613281 221.5625 L 168.613281 97.773438 L 101.207031 97.773438 "/>
<path style=" stroke:none;fill-rule:nonzero;fill:rgb(82.348633%,83.918762%,84.709167%);fill-opacity:1;" d="M 119.929688 116.53125 L 112.441406 116.53125 L 112.441406 109.027344 L 119.929688 109.027344 L 119.929688 116.53125 "/>
<path style=" stroke:none;fill-rule:nonzero;fill:rgb(82.348633%,83.918762%,84.709167%);fill-opacity:1;" d="M 138.652344 116.53125 L 131.164062 116.53125 L 131.164062 109.027344 L 138.652344 109.027344 L 138.652344 116.53125 "/>
<path style=" stroke:none;fill-rule:nonzero;fill:rgb(82.348633%,83.918762%,84.709167%);fill-opacity:1;" d="M 157.378906 116.53125 L 149.886719 116.53125 L 149.886719 109.027344 L 157.378906 109.027344 L 157.378906 116.53125 "/>
<path style=" stroke:none;fill-rule:nonzero;fill:rgb(82.348633%,83.918762%,84.709167%);fill-opacity:1;" d="M 119.929688 131.535156 L 112.441406 131.535156 L 112.441406 124.03125 L 119.929688 124.03125 L 119.929688 131.535156 "/>
<path style=" stroke:none;fill-rule:nonzero;fill:rgb(82.348633%,83.918762%,84.709167%);fill-opacity:1;" d="M 138.652344 131.535156 L 131.164062 131.535156 L 131.164062 124.03125 L 138.652344 124.03125 L 138.652344 131.535156 "/>
<path style=" stroke:none;fill-rule:nonzero;fill:rgb(82.348633%,83.918762%,84.709167%);fill-opacity:1;" d="M 157.378906 131.535156 L 149.886719 131.535156 L 149.886719 124.03125 L 157.378906 124.03125 L 157.378906 131.535156 "/>
<path style=" stroke:none;fill-rule:nonzero;fill:rgb(82.348633%,83.918762%,84.709167%);fill-opacity:1;" d="M 119.929688 146.539062 L 112.441406 146.539062 L 112.441406 139.039062 L 119.929688 139.039062 L 119.929688 146.539062 "/>
<path style=" stroke:none;fill-rule:nonzero;fill:rgb(82.348633%,83.918762%,84.709167%);fill-opacity:1;" d="M 138.652344 146.539062 L 131.164062 146.539062 L 131.164062 139.039062 L 138.652344 139.039062 L 138.652344 146.539062 "/>
<path style=" stroke:none;fill-rule:nonzero;fill:rgb(82.348633%,83.918762%,84.709167%);fill-opacity:1;" d="M 157.378906 146.539062 L 149.886719 146.539062 L 149.886719 139.039062 L 157.378906 139.039062 L 157.378906 146.539062 "/>
<path style=" stroke:none;fill-rule:nonzero;fill:rgb(82.348633%,83.918762%,84.709167%);fill-opacity:1;" d="M 119.929688 161.542969 L 112.441406 161.542969 L 112.441406 154.042969 L 119.929688 154.042969 L 119.929688 161.542969 "/>
<path style=" stroke:none;fill-rule:nonzero;fill:rgb(82.348633%,83.918762%,84.709167%);fill-opacity:1;" d="M 138.652344 161.542969 L 131.164062 161.542969 L 131.164062 154.042969 L 138.652344 154.042969 L 138.652344 161.542969 "/>
<path style=" stroke:none;fill-rule:nonzero;fill:rgb(82.348633%,83.918762%,84.709167%);fill-opacity:1;" d="M 157.378906 161.542969 L 149.886719 161.542969 L 149.886719 154.042969 L 157.378906 154.042969 L 157.378906 161.542969 "/>
<path style=" stroke:none;fill-rule:nonzero;fill:rgb(82.348633%,83.918762%,84.709167%);fill-opacity:1;" d="M 119.929688 176.550781 L 112.441406 176.550781 L 112.441406 169.046875 L 119.929688 169.046875 L 119.929688 176.550781 "/>
<path style=" stroke:none;fill-rule:nonzero;fill:rgb(82.348633%,83.918762%,84.709167%);fill-opacity:1;" d="M 138.652344 176.550781 L 131.164062 176.550781 L 131.164062 169.046875 L 138.652344 169.046875 L 138.652344 176.550781 "/>
<path style=" stroke:none;fill-rule:nonzero;fill:rgb(82.348633%,83.918762%,84.709167%);fill-opacity:1;" d="M 157.378906 176.550781 L 149.886719 176.550781 L 149.886719 169.046875 L 157.378906 169.046875 L 157.378906 176.550781 "/>
<path style=" stroke:none;fill-rule:nonzero;fill:rgb(82.348633%,83.918762%,84.709167%);fill-opacity:1;" d="M 123.675781 202.808594 L 123.675781 221.5625 L 146.144531 221.5625 L 146.144531 202.808594 L 123.675781 202.808594 "/>
<path style=" stroke:none;fill-rule:nonzero;fill:rgb(82.348633%,83.918762%,84.709167%);fill-opacity:1;" d="M 157.378906 191.554688 L 112.441406 191.554688 L 112.441406 184.050781 L 157.378906 184.050781 L 157.378906 191.554688 "/>
<path style=" stroke:none;fill-rule:nonzero;fill:rgb(65.098572%,69.40918%,72.158813%);fill-opacity:1;" d="M 74.992188 131.535156 L 67.503906 131.535156 L 67.503906 124.03125 L 74.992188 124.03125 L 74.992188 131.535156 "/>
<path style=" stroke:none;fill-rule:nonzero;fill:rgb(65.098572%,69.40918%,72.158813%);fill-opacity:1;" d="M 74.992188 150.292969 L 67.503906 150.292969 L 67.503906 142.789062 L 74.992188 142.789062 L 74.992188 150.292969 "/>
<path style=" stroke:none;fill-rule:nonzero;fill:rgb(65.098572%,69.40918%,72.158813%);fill-opacity:1;" d="M 89.972656 150.292969 L 82.480469 150.292969 L 82.480469 142.789062 L 89.972656 142.789062 L 89.972656 150.292969 "/>
<path style=" stroke:none;fill-rule:nonzero;fill:rgb(65.098572%,69.40918%,72.158813%);fill-opacity:1;" d="M 74.992188 169.046875 L 67.503906 169.046875 L 67.503906 161.542969 L 74.992188 161.542969 L 74.992188 169.046875 "/>
<path style=" stroke:none;fill-rule:nonzero;fill:rgb(65.098572%,69.40918%,72.158813%);fill-opacity:1;" d="M 89.972656 169.046875 L 82.480469 169.046875 L 82.480469 161.542969 L 89.972656 161.542969 L 89.972656 169.046875 "/>
<path style=" stroke:none;fill-rule:nonzero;fill:rgb(65.098572%,69.40918%,72.158813%);fill-opacity:1;" d="M 74.992188 187.804688 L 67.503906 187.804688 L 67.503906 180.300781 L 74.992188 180.300781 L 74.992188 187.804688 "/>
<path style=" stroke:none;fill-rule:nonzero;fill:rgb(65.098572%,69.40918%,72.158813%);fill-opacity:1;" d="M 89.972656 187.804688 L 82.480469 187.804688 L 82.480469 180.300781 L 89.972656 180.300781 L 89.972656 187.804688 "/>
<path style=" stroke:none;fill-rule:nonzero;fill:rgb(65.098572%,69.40918%,72.158813%);fill-opacity:1;" d="M 71.246094 202.808594 L 71.246094 221.5625 L 86.226562 221.5625 L 86.226562 202.808594 L 71.246094 202.808594 "/>
<path style=" stroke:none;fill-rule:nonzero;fill:rgb(58.81958%,62.348938%,64.309692%);fill-opacity:1;" d="M 112.441406 97.773438 L 104.949219 97.773438 L 104.949219 85.878906 C 104.949219 84.875 104.5625 83.933594 103.855469 83.226562 L 94.8125 74.171875 L 100.109375 68.863281 L 109.148438 77.921875 C 111.269531 80.046875 112.441406 82.875 112.441406 85.878906 L 112.441406 97.773438 "/>
<path style=" stroke:none;fill-rule:nonzero;fill:rgb(58.81958%,62.348938%,64.309692%);fill-opacity:1;" d="M 86.226562 112.78125 L 78.738281 112.78125 L 78.738281 104.636719 C 78.738281 103.632812 78.347656 102.6875 77.640625 101.980469 L 68.597656 92.925781 L 73.894531 87.617188 L 82.933594 96.675781 C 85.054688 98.800781 86.226562 101.628906 86.226562 104.636719 L 86.226562 112.78125 "/>
<path style=" stroke:none;fill-rule:nonzero;fill:rgb(58.81958%,62.348938%,64.309692%);fill-opacity:1;" d="M 142.398438 97.773438 L 134.910156 97.773438 L 134.910156 89.628906 C 134.910156 86.625 136.078125 83.796875 138.199219 81.671875 L 143.492188 76.363281 L 148.792969 81.671875 L 143.492188 86.976562 C 142.785156 87.683594 142.398438 88.625 142.398438 89.628906 L 142.398438 97.773438 "/>
<path style=" stroke:none;fill-rule:nonzero;fill:rgb(58.81958%,62.348938%,64.309692%);fill-opacity:1;" d="M 127.417969 97.773438 L 119.929688 97.773438 L 119.929688 67.765625 L 127.417969 67.765625 L 127.417969 97.773438 "/>
<path style=" stroke:none;fill-rule:nonzero;fill:rgb(65.098572%,69.40918%,72.158813%);fill-opacity:1;" d="M 89.972656 131.535156 L 82.480469 131.535156 L 82.480469 124.03125 L 89.972656 124.03125 L 89.972656 131.535156 "/>
<path style=" stroke:none;fill-rule:nonzero;fill:rgb(15.689087%,23.139954%,39.219666%);fill-opacity:1;" d="M 89.972656 64.015625 C 87.90625 64.015625 86.226562 65.699219 86.226562 67.765625 C 86.226562 69.832031 87.90625 71.515625 89.972656 71.515625 C 92.035156 71.515625 93.714844 69.832031 93.714844 67.765625 C 93.714844 65.699219 92.035156 64.015625 89.972656 64.015625 Z M 89.972656 79.019531 C 83.777344 79.019531 78.738281 73.96875 78.738281 67.765625 C 78.738281 61.5625 83.777344 56.511719 89.972656 56.511719 C 96.164062 56.511719 101.207031 61.5625 101.207031 67.765625 C 101.207031 73.96875 96.164062 79.019531 89.972656 79.019531 "/>
<path style=" stroke:none;fill-rule:nonzero;fill:rgb(15.689087%,23.139954%,39.219666%);fill-opacity:1;" d="M 149.886719 71.515625 C 147.824219 71.515625 146.144531 73.199219 146.144531 75.269531 C 146.144531 77.335938 147.824219 79.019531 149.886719 79.019531 C 151.953125 79.019531 153.632812 77.335938 153.632812 75.269531 C 153.632812 73.199219 151.953125 71.515625 149.886719 71.515625 Z M 149.886719 86.519531 C 143.695312 86.519531 138.652344 81.472656 138.652344 75.269531 C 138.652344 69.0625 143.695312 64.015625 149.886719 64.015625 C 156.082031 64.015625 161.121094 69.0625 161.121094 75.269531 C 161.121094 81.472656 156.082031 86.519531 149.886719 86.519531 "/>
<path style=" stroke:none;fill-rule:nonzero;fill:rgb(15.689087%,23.139954%,39.219666%);fill-opacity:1;" d="M 67.503906 82.769531 C 65.4375 82.769531 63.757812 84.453125 63.757812 86.519531 C 63.757812 88.589844 65.4375 90.273438 67.503906 90.273438 C 69.566406 90.273438 71.246094 88.589844 71.246094 86.519531 C 71.246094 84.453125 69.566406 82.769531 67.503906 82.769531 Z M 67.503906 97.773438 C 61.308594 97.773438 56.269531 92.726562 56.269531 86.519531 C 56.269531 80.316406 61.308594 75.269531 67.503906 75.269531 C 73.695312 75.269531 78.738281 80.316406 78.738281 86.519531 C 78.738281 92.726562 73.695312 97.773438 67.503906 97.773438 "/>
<path style=" stroke:none;fill-rule:nonzero;fill:rgb(15.689087%,23.139954%,39.219666%);fill-opacity:1;" d="M 123.675781 56.511719 C 121.609375 56.511719 119.929688 58.195312 119.929688 60.261719 C 119.929688 62.332031 121.609375 64.015625 123.675781 64.015625 C 125.738281 64.015625 127.417969 62.332031 127.417969 60.261719 C 127.417969 58.195312 125.738281 56.511719 123.675781 56.511719 Z M 123.675781 71.515625 C 117.480469 71.515625 112.441406 66.464844 112.441406 60.261719 C 112.441406 54.058594 117.480469 49.007812 123.675781 49.007812 C 129.867188 49.007812 134.910156 54.058594 134.910156 60.261719 C 134.910156 66.464844 129.867188 71.515625 123.675781 71.515625 "/>
<g clip-path="url(#clip3)" clip-rule="nonzero">
<path style=" stroke:none;fill-rule:nonzero;fill:rgb(82.348633%,83.918762%,84.709167%);fill-opacity:1;" d="M 224.785156 225.316406 L 0.09375 225.316406 L 0.09375 217.8125 L 224.785156 217.8125 L 224.785156 225.316406 "/>
</g>
<path style=" stroke:none;fill-rule:nonzero;fill:rgb(50.19989%,54.899597%,57.649231%);fill-opacity:1;" d="M 101.207031 112.78125 L 108.695312 217.8125 L 101.207031 217.8125 Z M 101.207031 112.78125 "/>
<path style=" stroke:none;fill-rule:nonzero;fill:rgb(12.548828%,18.429565%,30.589294%);fill-opacity:1;" d="M 168.613281 205.847656 C 170.296875 204.871094 172.324219 203.699219 175.5625 201.824219 L 171.914062 185.128906 C 173.238281 183.808594 174.335938 182.707031 175.324219 181.710938 L 168.816406 162.164062 C 168.75 162.242188 168.679688 162.320312 168.613281 162.398438 L 168.613281 205.847656 "/>
</g>
</svg>
